<svg xmlns="http://www.w3.org/2000/svg" version="1.1" xmlns:xlink="http://www.w3.org/1999/xlink" xmlns:svgjs="http://svgjs.dev/svgjs" width="100%" height="100%" viewBox="0 0 1000 600"><rect width="1000" height="600" x="0" y="0" fill="#2f3c7e"/><g><circle r="166.66666666666666" cx="329.5152384440104" cy="351.73746196579066" fill="#fbeaeb" transform="matrix(0.7675842571767066,0,0,0.7675842571767068,0,30.011869880668257)"/><path d="M262.7750339034978 413.499659233751Q258.7485586856676 412.0931507672487 257.7833077772837 411.37610723530634Q256.7904782715174 410.659063703364 256.0182775448102 409.4731840159209L256.0182775448102 409.4731840159209Q251.6608591583913 402.88189924152766 249.7303573416234 370.31157573291534L249.7303573416234 370.31157573291534Q249.23394258874026 363.0308260239622 249.23394258874026 356.05344088621547Q249.23394258874026 349.0760557484687 249.53730715994664 343.1190787138707Q249.81309313377062 337.16210167927267 250.30950788665376 331.81185378708744L250.30950788665376 331.81185378708744Q251.38507318456732 319.7875853283618 252.24000970342166 317.36066875871074L252.24000970342166 317.36066875871074L253.39831079348238 313.69271530685177Q254.97029084427908 309.0319323492265 260.48601032075874 306.7980659612522L260.48601032075874 306.7980659612522Q262.9129268904098 305.8328150528683 266.8015091213279 304.56419957327796L266.8015091213279 304.56419957327796L275.32329571248897 301.6684468481261Q280.0668144622615 300.2067811868591 285.22401217276996 298.7451155255919L285.22401217276996 298.7451155255919L295.0971500356685 295.84936280044013Q305.08060228809666 293.0363458674355 311.9752516336962 291.5746802061684L311.9752516336962 291.5746802061684L317.2151851363519 315.15438096811886Q314.7882685667008 315.7335315131493 311.2857866991363 316.3954178503268L311.2857866991363 316.3954178503268L287.62335014503856 320.86315062627534L280.94932957849824 322.2145018980128Q278.025998255964 322.9039668325728 276.5919111920793 323.2900671959264L276.5919111920793 323.2900671959264Q273.8616300512219 334.15603456459127 273.8616300512219 354.81240400400753L273.8616300512219 354.81240400400753Q273.8616300512219 381.75669364661064 277.17106173710965 394.5531628320434L277.17106173710965 394.5531628320434Q281.2251155523222 395.5184137404273 285.9962128994771 396.48366464881127L285.9962128994771 396.48366464881127L305.9631174043334 400.5652970614062L315.36741911173124 402.3027486964973L309.93443542739874 424.69656977100465Q301.2195986545609 423.1521683175904 294.021584737755 421.41471668249926L294.021584737755 421.41471668249926Q266.8015091213279 414.90616770025326 262.7750339034978 413.499659233751ZM384.8930631127572 426.73738597730215L385.7479996316115 365.9541573464964Q385.7479996316115 352.0821228631501 384.5896985415508 345.6838882704337L384.5896985415508 345.6838882704337L377.80536358548085 345.6838882704337Q371.98627953779476 345.6838882704337 368.7871622414366 346.84218936049444L368.7871622414366 346.84218936049444Q363.6575431283105 348.60721959296797 360.5411616240995 350.04130665685267L360.5411616240995 350.04130665685267L359.0794959628324 418.6016997494946L338.06460475744495 419.7600008395554Q337.7612401862386 382.41857998378816 336.98903945953145 363.3341905951686L336.98903945953145 363.3341905951686Q335.83073836947074 337.6309378347735 335.83073836947074 318.93264880950744L335.83073836947074 318.93264880950744Q335.83073836947074 306.3292298057514 336.2995745249715 281.59122795374026L336.2995745249715 281.59122795374026L359.4931749235684 276.7373948144382L360.5411616240995 338.1273525876566L375.95759756086017 324.4483682859871L397.49648211651316 324.4483682859871Q401.0816997762249 324.4483682859871 404.0877668909063 327.1786494268445L404.0877668909063 327.1786494268445Q409.41043618570916 332.1152183582938 409.603486367386 335.89348619968234Q409.7965365490628 339.6717540410709 409.7965365490628 343.56033627198906L409.7965365490628 343.56033627198906L409.7965365490628 351.11687195476617Q409.7965365490628 364.1063913218758 409.41043618570916 369.732425187885L409.41043618570916 369.732425187885L406.4043690710278 423.1521683175904L384.8930631127572 426.73738597730215Z " fill="#2f3c7e" transform="matrix(0.7675842571767066,0,0,0.7675842571767068,0,30.011869880668257)"/><path d="M593.0563296798649 413.499659233751Q589.0298544620348 412.0931507672487 588.0646035536508 411.37610723530634Q587.0717740478844 410.659063703364 586.2995733211774 409.4731840159209L586.2995733211774 409.4731840159209Q581.9421549347585 402.88189924152766 580.0116531179906 370.31157573291534L580.0116531179906 370.31157573291534Q579.5152383651074 363.0308260239622 579.5152383651074 356.05344088621547Q579.5152383651074 349.0760557484687 579.8186029363137 343.1190787138707Q580.0943889101377 337.16210167927267 580.5908036630209 331.81185378708744L580.5908036630209 331.81185378708744Q581.6663689609345 319.7875853283618 582.5213054797888 317.36066875871074L582.5213054797888 317.36066875871074L583.6796065698495 313.69271530685177Q585.2515866206462 309.0319323492265 590.7673060971258 306.7980659612522L590.7673060971258 306.7980659612522Q593.1942226667769 305.8328150528683 597.082804897695 304.56419957327796L597.082804897695 304.56419957327796L605.6045914888562 301.6684468481261Q610.3481102386286 300.2067811868591 615.5053079491371 298.7451155255919L615.5053079491371 298.7451155255919L625.3784458120356 295.84936280044013Q635.3618980644637 293.0363458674355 642.2565474100634 291.5746802061684L642.2565474100634 291.5746802061684L647.4964809127191 315.15438096811886Q645.069564343068 315.7335315131493 641.5670824755034 316.3954178503268L641.5670824755034 316.3954178503268L617.9046459214057 320.86315062627534L611.2306253548654 322.2145018980128Q608.3072940323311 322.9039668325728 606.8732069684464 323.2900671959264L606.8732069684464 323.2900671959264Q604.142925827589 334.15603456459127 604.142925827589 354.81240400400753L604.142925827589 354.81240400400753Q604.142925827589 381.75669364661064 607.4523575134767 394.5531628320434L607.4523575134767 394.5531628320434Q611.5064113286894 395.5184137404273 616.2775086758443 396.48366464881127L616.2775086758443 396.48366464881127L636.2444131807006 400.5652970614062L645.6487148880983 402.3027486964973L640.2157312037659 424.69656977100465Q631.500894430928 423.1521683175904 624.3028805141221 421.41471668249926L624.3028805141221 421.41471668249926Q597.082804897695 414.90616770025326 593.0563296798649 413.499659233751ZM715.1743588891243 426.73738597730215L716.0292954079787 365.9541573464964Q716.0292954079787 352.0821228631501 714.8709943179178 345.6838882704337L714.8709943179178 345.6838882704337L708.086659361848 345.6838882704337Q702.267575314162 345.6838882704337 699.0684580178038 346.84218936049444L699.0684580178038 346.84218936049444Q693.9388389046776 348.60721959296797 690.8224574004666 350.04130665685267L690.8224574004666 350.04130665685267L689.3607917391995 418.6016997494946L668.345900533812 419.7600008395554Q668.0425359626057 382.41857998378816 667.2703352358985 363.3341905951686L667.2703352358985 363.3341905951686Q666.1120341458378 337.6309378347735 666.1120341458378 318.93264880950744L666.1120341458378 318.93264880950744Q666.1120341458378 306.3292298057514 666.5808703013386 281.59122795374026L666.5808703013386 281.59122795374026L689.7744706999356 276.7373948144382L690.8224574004666 338.1273525876566L706.2388933372273 324.4483682859871L727.7777778928803 324.4483682859871Q731.3629955525921 324.4483682859871 734.3690626672735 327.1786494268445L734.3690626672735 327.1786494268445Q739.6917319620763 332.1152183582938 739.8847821437531 335.89348619968234Q740.0778323254299 339.6717540410709 740.0778323254299 343.56033627198906L740.0778323254299 343.56033627198906L740.0778323254299 351.11687195476617Q740.0778323254299 364.1063913218758 739.6917319620763 369.732425187885L739.6917319620763 369.732425187885L736.685664847395 423.1521683175904L715.1743588891243 426.73738597730215ZM834.0381136072607 405.88796635620906L829.6806952208418 426.73738597730215Q789.7193076137467 422.6557535647072 767.0221219680329 414.6303817264293L767.0221219680329 414.6303817264293Q762.8577537632908 413.0584016756326 761.5064024915533 396.78702922001764L761.5064024915533 396.78702922001764Q760.3481014014926 381.8394294387578 764.043633450734 370.8907262779457L764.043633450734 370.8907262779457Q765.5880349041482 366.34025770985 767.7115869025929 365.84384295696685L767.7115869025929 365.84384295696685Q776.8401026361668 363.4169263873158 786.9062906807421 362.36893968678464L786.9062906807421 362.36893968678464L807.0662453672752 360.1350732988104L806.6801450039217 346.4560889971409Q796.1175422064631 344.4152727908434 785.6928323959166 343.20181450601785Q775.2681225853701 341.98835622119236 765.0088843591179 340.3612189756309L765.0088843591179 340.3612189756309L770.138503472244 319.1256989911842L786.5201903173886 321.5526155608353Q809.0243257814254 324.83446864934064 822.2896311223591 329.57798739911317L822.2896311223591 329.57798739911317Q828.6878657150754 331.922168176617 828.6878657150754 338.98228910651096L828.6878657150754 338.98228910651096L829.073966078429 392.1262462623924L808.4451752363951 394.16706246868983L807.8660246913647 377.59232544186847L802.3227266175028 378.64031214239964Q793.0287392996345 380.2122921931963 784.5896885006207 382.52889437331777L784.5896885006207 382.52889437331777Q783.5141232027072 387.65851348644384 783.5141232027072 391.05068096447883L783.5141232027072 391.05068096447883Q783.5141232027072 396.0148284933105 783.9002235660607 398.71753103678554L783.9002235660607 398.71753103678554Q797.5792078677302 401.83391254099655 826.09547756113 405.0330298373547L826.09547756113 405.0330298373547L834.0381136072607 405.88796635620906ZM855.4666837733841 407.0462674462698L854.3083826833233 301.3650822769198L877.9432406400388 296.814613708824L877.9432406400388 327.26138521899173L902.2951421286964 322.710916650896L904.142908153317 344.7186373620498L878.3293410033923 346.6491391788177L876.509153576154 399.1036314001391Q883.6795888955776 401.33749778811335 888.9195223982332 402.6061132677037L888.9195223982332 402.6061132677037Q901.99177755749 405.6949161745323 904.9151088800241 406.4671169012395L904.9151088800241 406.4671169012395L899.7579111695156 426.73738597730215Q878.2466052112451 421.9938672275297 862.0579685477774 415.78868281649005L862.0579685477774 415.78868281649005Q855.4666837733841 413.361766246839 855.4666837733841 407.0462674462698L855.4666837733841 407.0462674462698ZM924.6889632032037 407.0462674462698L923.530662113143 301.3650822769198L947.1930986672406 296.814613708824L947.1930986672406 327.26138521899173L971.5174215585159 322.710916650896L973.3651875831365 344.7186373620498L947.5791990305943 346.6491391788177L945.7314330059735 399.1036314001391Q952.9018683253971 401.33749778811335 958.1418018280526 402.6061132677037L958.1418018280526 402.6061132677037Q971.2140569873095 405.6949161745323 974.1373883098438 406.4671169012395L974.1373883098438 406.4671169012395L969.0077691967176 426.73738597730215Q947.4688846410646 421.9938672275297 931.2802479775969 415.78868281649005L931.2802479775969 415.78868281649005Q924.6889632032037 413.361766246839 924.6889632032037 407.0462674462698L924.6889632032037 407.0462674462698ZM991.7876906345787 405.22608001903154L991.0982257000187 355.1985043673611Q991.0982257000187 342.18140640286913 993.828506840876 340.16816879395407Q996.5312093843511 338.1273525876566 999.923376862386 336.03137918659434Q1003.315544340421 333.9629843829145 1007.3971767530161 331.922168176617Q1011.4512305682285 329.88135197031954 1015.8638061494123 328.03358594569886Q1020.2763817305959 326.1858199210782 1024.5510643248676 324.7517328571935L1024.5510643248676 324.7517328571935Q1033.6520014610592 321.63535135298247 1038.1748914317725 321.63535135298247Q1042.6702028051034 321.63535135298247 1045.483219738108 322.07660891110083Q1048.2962366711126 322.5178664692192 1050.6404174486165 323.48311737760315L1050.6404174486165 323.48311737760315Q1055.9630867434194 325.7169837655774 1056.6525516779793 329.99166635984915L1056.6525516779793 329.99166635984915Q1059.8516689743374 350.23435683852944 1059.8516689743374 378.25421177904605L1059.8516689743374 378.25421177904605L1059.8516689743374 383.99056003458486L1013.4093109823789 384.5697105796153L1013.4093109823789 397.17312958337124Q1020.9658466651559 399.0208956079919 1031.4457136704673 400.5652970614062L1031.4457136704673 400.5652970614062L1048.1031864894358 403.2679996048812Q1054.501421082152 404.2332505132652 1061.203020246075 405.5018659928555L1061.203020246075 405.5018659928555L1055.4666719905363 426.73738597730215Q1028.8257469191394 422.57301777256004 998.8478115644725 413.2514518573094L998.8478115644725 413.2514518573094Q991.9807408162553 411.0451640667176 991.7876906345787 405.22608001903154L991.7876906345787 405.22608001903154ZM1038.0369984448603 365.1819566197893L1038.0369984448603 363.1411404134918Q1038.0369984448603 354.012624679918 1036.18923242024 343.94643663534265L1036.18923242024 343.94643663534265Q1032.3006501893215 343.94643663534265 1029.9840480092003 344.33253699869624Q1027.6398672316964 344.7186373620498 1025.323265051575 345.40810229660974Q1023.0066628714534 346.0699886337873 1020.5797463018023 346.95250375002405L1020.5797463018023 346.95250375002405Q1014.8433980462635 348.9933199563215 1013.0232106190252 350.42740702020626L1013.0232106190252 350.42740702020626L1013.0232106190252 367.8846591632643L1038.0369984448603 365.1819566197893ZM1086.409858253587 420.53220156626253L1084.8654568001728 344.525587180373L1084.6724066184956 326.57192028443177L1105.3287760579121 324.4483682859871L1108.7209435359473 339.2029178855702L1123.530650330295 322.9039668325728L1135.0860826335197 322.9039668325728L1139.939915772822 345.6011524782865Q1139.939915772822 345.6011524782865 1124.716530017738 348.8830055667919L1124.716530017738 348.8830055667919Q1117.435780308785 350.42740702020626 1109.6861944443312 352.27517304482694L1109.6861944443312 352.27517304482694L1108.3072645752113 418.6016997494946L1086.409858253587 420.53220156626253Z " fill="#fbeaeb" transform="matrix(0.7675842571767066,0,0,0.7675842571767068,0,30.011869880668257)"/></g></svg>